<svg width="65" height="65" viewBox="0 0 65 65" fill="none" xmlns="http://www.w3.org/2000/svg">
<path fill-rule="evenodd" clip-rule="evenodd" d="M13.0003 4.33325C10.6071 4.33325 8.66699 6.27337 8.66699 8.66658V56.3332C8.66699 58.7265 10.6071 60.6666 13.0003 60.6666H45.5003C46.6968 60.6666 47.667 59.6963 47.667 58.4999C47.667 57.3035 46.6968 56.3332 45.5003 56.3332H13.0003V8.66658H45.5003C46.6968 8.66658 47.667 7.69653 47.667 6.49992C47.667 5.30331 46.6968 4.33325 45.5003 4.33325H13.0003ZM54.6159 21.2179C53.7696 20.3717 52.3977 20.3717 51.5514 21.2179C50.7055 22.064 50.7055 23.4358 51.5514 24.282L57.6029 30.3333H28.167C26.9704 30.3333 26.0003 31.3033 26.0003 32.4999C26.0003 33.6965 26.9704 34.6666 28.167 34.6666H57.6029L51.5514 40.7179C50.7055 41.564 50.7055 42.9358 51.5514 43.7822C52.3977 44.628 53.7696 44.628 54.6159 43.7822L64.3659 34.032C65.2118 33.1858 65.2118 31.814 64.3659 30.9679L54.6159 21.2179Z" fill="#3D63DD"/>
</svg>
