<svg width="65" height="65" viewBox="0 0 65 65" fill="none" xmlns="http://www.w3.org/2000/svg">
<path fill-rule="evenodd" clip-rule="evenodd" d="M8.01694 32.5C8.01694 20.2133 17.5928 8.0167 32.5003 8.0167C44.5397 8.0167 50.4902 16.9279 53.0261 21.6668H45.5004C44.3039 21.6668 43.3337 22.6368 43.3337 23.8335C43.3337 25.0301 44.3039 26.0001 45.5004 26.0001H58.5004C59.6968 26.0001 60.667 25.0301 60.667 23.8335V10.8335C60.667 9.63685 59.6968 8.66679 58.5004 8.66679C57.3039 8.66679 56.3337 9.63685 56.3337 10.8335V18.6906C53.2809 13.3089 46.2193 3.68335 32.5003 3.68335C14.8947 3.68335 3.68359 18.1367 3.68359 32.5C3.68359 46.8634 14.8947 61.3168 32.5003 61.3168C40.9236 61.3168 47.9366 57.9836 52.9299 52.9032C55.6035 50.1827 57.6913 46.9691 59.1148 43.5098C59.5703 42.4033 59.0425 41.1371 57.9362 40.6817C56.8294 40.2263 55.5632 40.7542 55.1078 41.8607C53.891 44.8176 52.1091 47.5563 49.8393 49.8655C45.6282 54.1508 39.7155 56.9835 32.5003 56.9835C17.5928 56.9835 8.01694 44.7869 8.01694 32.5Z" fill="#3D63DD"/>
</svg>
